<svg xmlns="http://www.w3.org/2000/svg" xmlns:xlink="http://www.w3.org/1999/xlink" width="64" zoomAndPan="magnify" viewBox="0 0 48 48" height="64" preserveAspectRatio="xMidYMid meet" version="1.2"><defs><clipPath id="6d1ab45fa3"><path d="M 2.386719 3.535156 L 45.613281 3.535156 L 45.613281 46.761719 L 2.386719 46.761719 Z M 2.386719 3.535156 "/></clipPath></defs><g id="7a9b9bb260"><g clip-rule="nonzero" clip-path="url(#6d1ab45fa3)"><path style=" stroke:none;fill-rule:nonzero;fill:#38b6ff;fill-opacity:1;" d="M 8.351562 3.535156 C 5.109375 3.535156 2.484375 6.160156 2.484375 9.402344 L 2.484375 30.917969 C 2.484375 34.160156 5.109375 36.785156 8.351562 36.785156 L 12.265625 36.785156 L 12.265625 44.609375 C 12.265625 45.367188 12.703125 46.058594 13.390625 46.378906 C 14.078125 46.703125 14.890625 46.597656 15.472656 46.113281 L 26.664062 36.785156 L 39.648438 36.785156 C 42.890625 36.785156 45.515625 34.160156 45.515625 30.917969 L 45.515625 9.402344 C 45.515625 6.160156 42.890625 3.535156 39.648438 3.535156 Z M 8.351562 3.535156 "/></g><g style="fill:#ffffff;fill-opacity:1;"><g transform="translate(14.079579, 31.119207)"><path style="stroke:none" d="M 18.890625 -4.4375 L 18.890625 0 L 1.109375 0 L 1.109375 -3.53125 L 10.1875 -12.09375 C 11.144531 -13.019531 11.789062 -13.8125 12.125 -14.46875 C 12.46875 -15.125 12.640625 -15.78125 12.640625 -16.4375 C 12.640625 -17.375 12.316406 -18.09375 11.671875 -18.59375 C 11.035156 -19.101562 10.101562 -19.359375 8.875 -19.359375 C 7.84375 -19.359375 6.910156 -19.160156 6.078125 -18.765625 C 5.253906 -18.378906 4.5625 -17.789062 4 -17 L 0.03125 -19.5625 C 0.945312 -20.925781 2.210938 -21.992188 3.828125 -22.765625 C 5.441406 -23.546875 7.289062 -23.9375 9.375 -23.9375 C 11.125 -23.9375 12.65625 -23.648438 13.96875 -23.078125 C 15.28125 -22.503906 16.296875 -21.695312 17.015625 -20.65625 C 17.742188 -19.613281 18.109375 -18.382812 18.109375 -16.96875 C 18.109375 -15.695312 17.835938 -14.5 17.296875 -13.375 C 16.765625 -12.257812 15.726562 -10.984375 14.1875 -9.546875 L 8.765625 -4.4375 Z M 18.890625 -4.4375 "/></g></g></g></svg>