<svg xmlns="http://www.w3.org/2000/svg" xmlns:xlink="http://www.w3.org/1999/xlink" width="400" zoomAndPan="magnify" viewBox="0 0 300 74.999997" height="100" preserveAspectRatio="xMidYMid meet" version="1.2"><defs><clipPath id="c3699d3a4b"><path d="M 106.402344 15 L 151.402344 15 L 151.402344 60 L 106.402344 60 Z M 106.402344 15 "/></clipPath></defs><g id="b8f7671b14"><g style="fill:#000000;fill-opacity:1;"><g transform="translate(0.000006, 59.320175)"><path style="stroke:none" d="M 20.296875 0.4375 C 16.890625 0.4375 13.820312 -0.296875 11.09375 -1.765625 C 8.363281 -3.234375 6.226562 -5.28125 4.6875 -7.90625 C 3.15625 -10.53125 2.390625 -13.503906 2.390625 -16.828125 C 2.390625 -20.148438 3.15625 -23.113281 4.6875 -25.71875 C 6.226562 -28.320312 8.363281 -30.359375 11.09375 -31.828125 C 13.820312 -33.296875 16.890625 -34.03125 20.296875 -34.03125 C 23.742188 -34.03125 26.832031 -33.296875 29.5625 -31.828125 C 32.289062 -30.359375 34.421875 -28.320312 35.953125 -25.71875 C 37.492188 -23.113281 38.265625 -20.148438 38.265625 -16.828125 C 38.265625 -13.503906 37.492188 -10.53125 35.953125 -7.90625 C 34.421875 -5.28125 32.289062 -3.234375 29.5625 -1.765625 C 26.832031 -0.296875 23.742188 0.4375 20.296875 0.4375 Z M 20.296875 -6.296875 C 23.191406 -6.296875 25.582031 -7.265625 27.46875 -9.203125 C 29.363281 -11.140625 30.3125 -13.679688 30.3125 -16.828125 C 30.3125 -19.984375 29.363281 -22.523438 27.46875 -24.453125 C 25.582031 -26.390625 23.191406 -27.359375 20.296875 -27.359375 C 17.398438 -27.359375 15.015625 -26.390625 13.140625 -24.453125 C 11.273438 -22.523438 10.34375 -19.984375 10.34375 -16.828125 C 10.34375 -13.679688 11.273438 -11.140625 13.140625 -9.203125 C 15.015625 -7.265625 17.398438 -6.296875 20.296875 -6.296875 Z M 20.296875 -6.296875 "/></g></g><g style="fill:#000000;fill-opacity:1;"><g transform="translate(40.646356, 59.320175)"><path style="stroke:none" d="M 47.65625 -34.03125 C 51.894531 -34.03125 55.253906 -32.800781 57.734375 -30.34375 C 60.210938 -27.882812 61.453125 -24.195312 61.453125 -19.28125 L 61.453125 0 L 53.578125 0 L 53.578125 -18.28125 C 53.578125 -21.21875 52.925781 -23.429688 51.625 -24.921875 C 50.320312 -26.421875 48.453125 -27.171875 46.015625 -27.171875 C 43.367188 -27.171875 41.242188 -26.296875 39.640625 -24.546875 C 38.046875 -22.804688 37.25 -20.316406 37.25 -17.078125 L 37.25 0 L 29.375 0 L 29.375 -18.28125 C 29.375 -21.21875 28.722656 -23.429688 27.421875 -24.921875 C 26.117188 -26.421875 24.25 -27.171875 21.8125 -27.171875 C 19.125 -27.171875 16.988281 -26.304688 15.40625 -24.578125 C 13.832031 -22.859375 13.046875 -20.359375 13.046875 -17.078125 L 13.046875 0 L 5.171875 0 L 5.171875 -33.65625 L 12.671875 -33.65625 L 12.671875 -29.375 C 13.929688 -30.882812 15.503906 -32.035156 17.390625 -32.828125 C 19.285156 -33.628906 21.390625 -34.03125 23.703125 -34.03125 C 26.222656 -34.03125 28.457031 -33.554688 30.40625 -32.609375 C 32.363281 -31.671875 33.910156 -30.273438 35.046875 -28.421875 C 36.429688 -30.191406 38.21875 -31.566406 40.40625 -32.546875 C 42.59375 -33.535156 45.007812 -34.03125 47.65625 -34.03125 Z M 47.65625 -34.03125 "/></g></g><g style="fill:#000000;fill-opacity:1;"><g transform="translate(151.403386, 59.320175)"><path style="stroke:none" d="M 20.609375 0.4375 C 17.117188 0.4375 13.988281 -0.296875 11.21875 -1.765625 C 8.445312 -3.234375 6.28125 -5.28125 4.71875 -7.90625 C 3.164062 -10.53125 2.390625 -13.503906 2.390625 -16.828125 C 2.390625 -20.148438 3.164062 -23.113281 4.71875 -25.71875 C 6.28125 -28.320312 8.4375 -30.359375 11.1875 -31.828125 C 13.9375 -33.296875 17.078125 -34.03125 20.609375 -34.03125 C 23.929688 -34.03125 26.84375 -33.359375 29.34375 -32.015625 C 31.84375 -30.671875 33.722656 -28.738281 34.984375 -26.21875 L 28.9375 -22.6875 C 27.96875 -24.238281 26.753906 -25.40625 25.296875 -26.1875 C 23.847656 -26.96875 22.265625 -27.359375 20.546875 -27.359375 C 17.609375 -27.359375 15.171875 -26.398438 13.234375 -24.484375 C 11.304688 -22.578125 10.34375 -20.023438 10.34375 -16.828125 C 10.34375 -13.628906 11.296875 -11.070312 13.203125 -9.15625 C 15.117188 -7.25 17.566406 -6.296875 20.546875 -6.296875 C 22.265625 -6.296875 23.847656 -6.6875 25.296875 -7.46875 C 26.753906 -8.25 27.96875 -9.414062 28.9375 -10.96875 L 34.984375 -7.4375 C 33.679688 -4.914062 31.78125 -2.972656 29.28125 -1.609375 C 26.78125 -0.242188 23.890625 0.4375 20.609375 0.4375 Z M 20.609375 0.4375 "/></g></g><g style="fill:#000000;fill-opacity:1;"><g transform="translate(188.01661, 59.320175)"><path style="stroke:none" d="M 24.265625 -34.03125 C 28.515625 -34.03125 31.921875 -32.789062 34.484375 -30.3125 C 37.046875 -27.832031 38.328125 -24.15625 38.328125 -19.28125 L 38.328125 0 L 30.4375 0 L 30.4375 -18.28125 C 30.4375 -21.21875 29.742188 -23.429688 28.359375 -24.921875 C 26.972656 -26.421875 25 -27.171875 22.4375 -27.171875 C 19.539062 -27.171875 17.25 -26.296875 15.5625 -24.546875 C 13.882812 -22.804688 13.046875 -20.296875 13.046875 -17.015625 L 13.046875 0 L 5.171875 0 L 5.171875 -46.765625 L 13.046875 -46.765625 L 13.046875 -29.75 C 14.347656 -31.132812 15.953125 -32.191406 17.859375 -32.921875 C 19.773438 -33.660156 21.910156 -34.03125 24.265625 -34.03125 Z M 24.265625 -34.03125 "/></g></g><g style="fill:#000000;fill-opacity:1;"><g transform="translate(231.183662, 59.320175)"><path style="stroke:none" d="M 18.03125 -34.03125 C 22.988281 -34.03125 26.78125 -32.84375 29.40625 -30.46875 C 32.03125 -28.101562 33.34375 -24.523438 33.34375 -19.734375 L 33.34375 0 L 25.90625 0 L 25.90625 -4.09375 C 24.9375 -2.625 23.554688 -1.5 21.765625 -0.71875 C 19.984375 0.0507812 17.832031 0.4375 15.3125 0.4375 C 12.789062 0.4375 10.582031 0.0078125 8.6875 -0.84375 C 6.800781 -1.707031 5.34375 -2.90625 4.3125 -4.4375 C 3.28125 -5.976562 2.765625 -7.710938 2.765625 -9.640625 C 2.765625 -12.671875 3.890625 -15.097656 6.140625 -16.921875 C 8.390625 -18.753906 11.929688 -19.671875 16.765625 -19.671875 L 25.46875 -19.671875 L 25.46875 -20.171875 C 25.46875 -22.523438 24.757812 -24.332031 23.34375 -25.59375 C 21.9375 -26.851562 19.847656 -27.484375 17.078125 -27.484375 C 15.191406 -27.484375 13.332031 -27.1875 11.5 -26.59375 C 9.675781 -26.007812 8.132812 -25.191406 6.875 -24.140625 L 3.78125 -29.875 C 5.539062 -31.21875 7.660156 -32.242188 10.140625 -32.953125 C 12.617188 -33.671875 15.25 -34.03125 18.03125 -34.03125 Z M 16.953125 -5.296875 C 18.929688 -5.296875 20.6875 -5.742188 22.21875 -6.640625 C 23.75 -7.546875 24.832031 -8.84375 25.46875 -10.53125 L 25.46875 -14.4375 L 17.328125 -14.4375 C 12.796875 -14.4375 10.53125 -12.941406 10.53125 -9.953125 C 10.53125 -8.523438 11.097656 -7.390625 12.234375 -6.546875 C 13.367188 -5.710938 14.941406 -5.296875 16.953125 -5.296875 Z M 16.953125 -5.296875 "/></g></g><g style="fill:#000000;fill-opacity:1;"><g transform="translate(269.435336, 59.320175)"><path style="stroke:none" d="M 25.40625 -1.828125 C 24.476562 -1.066406 23.351562 -0.5 22.03125 -0.125 C 20.707031 0.25 19.3125 0.4375 17.84375 0.4375 C 14.144531 0.4375 11.285156 -0.523438 9.265625 -2.453125 C 7.242188 -4.390625 6.234375 -7.207031 6.234375 -10.90625 L 6.234375 -27.109375 L 0.6875 -27.109375 L 0.6875 -33.40625 L 6.234375 -33.40625 L 6.234375 -41.09375 L 14.125 -41.09375 L 14.125 -33.40625 L 23.125 -33.40625 L 23.125 -27.109375 L 14.125 -27.109375 L 14.125 -11.09375 C 14.125 -9.457031 14.519531 -8.207031 15.3125 -7.34375 C 16.113281 -6.476562 17.269531 -6.046875 18.78125 -6.046875 C 20.550781 -6.046875 22.023438 -6.507812 23.203125 -7.4375 Z M 25.40625 -1.828125 "/></g></g><g clip-rule="nonzero" clip-path="url(#c3699d3a4b)"><path style=" stroke:none;fill-rule:nonzero;fill:#38b6ff;fill-opacity:1;" d="M 112.613281 15 C 109.238281 15 106.503906 17.734375 106.503906 21.109375 L 106.503906 43.507812 C 106.503906 46.878906 109.238281 49.617188 112.613281 49.617188 L 116.6875 49.617188 L 116.6875 57.761719 C 116.6875 58.550781 117.144531 59.269531 117.859375 59.605469 C 118.574219 59.9375 119.417969 59.832031 120.027344 59.324219 L 131.675781 49.617188 L 145.191406 49.617188 C 148.566406 49.617188 151.300781 46.878906 151.300781 43.507812 L 151.300781 21.109375 C 151.300781 17.734375 148.566406 15 145.191406 15 Z M 112.613281 15 "/></g><g style="fill:#ffffff;fill-opacity:1;"><g transform="translate(118.576249, 43.71693)"><path style="stroke:none" d="M 19.65625 -4.625 L 19.65625 0 L 1.15625 0 L 1.15625 -3.671875 L 10.59375 -12.59375 C 11.601562 -13.550781 12.28125 -14.375 12.625 -15.0625 C 12.976562 -15.75 13.15625 -16.429688 13.15625 -17.109375 C 13.15625 -18.085938 12.820312 -18.835938 12.15625 -19.359375 C 11.488281 -19.890625 10.515625 -20.15625 9.234375 -20.15625 C 8.160156 -20.15625 7.191406 -19.945312 6.328125 -19.53125 C 5.460938 -19.125 4.738281 -18.515625 4.15625 -17.703125 L 0.03125 -20.359375 C 0.988281 -21.785156 2.304688 -22.898438 3.984375 -23.703125 C 5.660156 -24.503906 7.585938 -24.90625 9.765625 -24.90625 C 11.578125 -24.90625 13.164062 -24.609375 14.53125 -24.015625 C 15.894531 -23.421875 16.957031 -22.582031 17.71875 -21.5 C 18.476562 -20.414062 18.859375 -19.140625 18.859375 -17.671875 C 18.859375 -16.335938 18.578125 -15.085938 18.015625 -13.921875 C 17.453125 -12.753906 16.367188 -11.425781 14.765625 -9.9375 L 9.125 -4.625 Z M 19.65625 -4.625 "/></g></g></g></svg>