<svg xmlns="http://www.w3.org/2000/svg" xmlns:xlink="http://www.w3.org/1999/xlink" width="128" zoomAndPan="magnify" viewBox="0 0 96 95.999999" height="128" preserveAspectRatio="xMidYMid meet" version="1.2"><defs><clipPath id="2829befcba"><path d="M 4 7.214844 L 92 7.214844 L 92 95.46875 L 4 95.46875 Z M 4 7.214844 "/></clipPath></defs><g id="c1403dcb7b"><g clip-rule="nonzero" clip-path="url(#2829befcba)"><path style=" stroke:none;fill-rule:nonzero;fill:#38b6ff;fill-opacity:1;" d="M 16.050781 7.214844 C 9.433594 7.214844 4.070312 12.578125 4.070312 19.195312 L 4.070312 63.121094 C 4.070312 69.738281 9.433594 75.101562 16.050781 75.101562 L 24.039062 75.101562 L 24.039062 91.078125 C 24.039062 92.625 24.933594 94.035156 26.339844 94.695312 C 27.742188 95.351562 29.398438 95.136719 30.589844 94.144531 L 53.4375 75.101562 L 79.949219 75.101562 C 86.566406 75.101562 91.929688 69.738281 91.929688 63.121094 L 91.929688 19.195312 C 91.929688 12.578125 86.566406 7.214844 79.949219 7.214844 Z M 16.050781 7.214844 "/></g><g style="fill:#ffffff;fill-opacity:1;"><g transform="translate(27.745808, 63.535044)"><path style="stroke:none" d="M 38.5625 -9.0625 L 38.5625 0 L 2.265625 0 L 2.265625 -7.203125 L 20.796875 -24.703125 C 22.765625 -26.578125 24.085938 -28.1875 24.765625 -29.53125 C 25.453125 -30.882812 25.796875 -32.226562 25.796875 -33.5625 C 25.796875 -35.476562 25.144531 -36.953125 23.84375 -37.984375 C 22.539062 -39.015625 20.628906 -39.53125 18.109375 -39.53125 C 16.003906 -39.53125 14.101562 -39.128906 12.40625 -38.328125 C 10.71875 -37.523438 9.304688 -36.320312 8.171875 -34.71875 L 0.0625 -39.9375 C 1.9375 -42.726562 4.519531 -44.910156 7.8125 -46.484375 C 11.113281 -48.066406 14.890625 -48.859375 19.140625 -48.859375 C 22.710938 -48.859375 25.835938 -48.273438 28.515625 -47.109375 C 31.191406 -45.941406 33.269531 -44.296875 34.75 -42.171875 C 36.238281 -40.046875 36.984375 -37.539062 36.984375 -34.65625 C 36.984375 -32.050781 36.429688 -29.601562 35.328125 -27.3125 C 34.234375 -25.019531 32.109375 -22.410156 28.953125 -19.484375 L 17.90625 -9.0625 Z M 38.5625 -9.0625 "/></g></g></g></svg>